# xmcd
#
# Track frame offsets: 
#        150
#        13312
#        27517
#        35357
#        51247
#        62078
#        74969
#        86244
#        98015
#        109996
#        121123
#        132176
#        145025
#        157981
#        166622
#        179864
#        191992
#        205320
#        214599
#        225354
#
# Disc length: 3199 seconds
#
# Revision: 1
# Processed by: cddbd v1.5.2PL0 Copyright (c) Steve Scherf et al.
# Submitted via: ExactAudioCopy v1.3
#
DISCID=260c7d14
DTITLE=Day, Doris - Day By Day CD2
DYEAR=2011
DGENRE=Easy Listening
TTITLE0=When I Fall In Love
TTITLE1=Ten Cents A Dance
TTITLE2=I Can Do Without You
TTITLE3=Makin' Whoopee
TTITLE4=Ooh! Bang! Jiggly Jang
TTITLE5=Let It Ring
TTITLE6=A Woman's Touch
TTITLE7=Ain't We Got Fun
TTITLE8=It Had To Be You
TTITLE9=On Moonlight Bay
TTITLE10=Lullaby Of Broadway
TTITLE11=By The Light Of Silvery Moon
TTITLE12=You're Getting To Be A Habit With Me
TTITLE13=When The Red, Red Robin Comes Bob, Bob, Bobbin' Along
TTITLE14=Kiss Me Again, Stranger
TTITLE15=A Guy Is A Guy
TTITLE16=It's A Lovely Day Today
TTITLE17=Candy Lips
TTITLE18=You Made Me Love You
TTITLE19=My Buddy
EXTD=YEAR: 2011
EXTT0=
EXTT1=
EXTT2=
EXTT3=
EXTT4=
EXTT5=
EXTT6=
EXTT7=
EXTT8=
EXTT9=
EXTT10=
EXTT11=
EXTT12=
EXTT13=
EXTT14=
EXTT15=
EXTT16=
EXTT17=
EXTT18=
EXTT19=
PLAYORDER=
